<?xml version="1.0" encoding="utf-8"?>
<!-- Generator: Adobe Illustrator 19.0.0, SVG Export Plug-In . SVG Version: 6.00 Build 0)  -->
<svg version="1.1" id="Layer_1" xmlns="http://www.w3.org/2000/svg" xmlns:xlink="http://www.w3.org/1999/xlink" x="0px" y="0px"
	 width="157px" height="47px" viewBox="0 0 137.1 47.3" style="enable-background:new 0 0 137.1 47.3;" xml:space="preserve">
<style type="text/css">
	.st0{fill:#FFBF3C;}
	.st1{fill:#FFBF3C;}
</style>
<path id="XMLID_57_" class="st0" d="M36.4,36.3c-3.3,3.3-7.8,5.3-12.8,5.3c-9.9,0-18-8-18-18s8-18,18-18c4.9,0,9.4,2,12.6,5.2
	l3.5-3.6c-4.2-4.1-9.8-6.6-16.1-6.6c-12.7,0-23,10.3-23,23c0,12.7,10.3,23,23,23c6.4,0,12.2-2.6,16.4-6.9L36.4,36.3z"/>
<g id="XMLID_67_">
	<path id="XMLID_68_" class="st1" d="M44,18.6c0.9,0.6,1.4,1.4,1.8,2.5v-3.2h2.1v12.6h-2.1v-3.2c-0.3,1-0.9,1.8-1.8,2.5
		c-0.9,0.6-1.9,0.9-3.1,0.9c-1.1,0-2.1-0.3-3-0.8s-1.6-1.3-2.1-2.2c-0.5-1-0.7-2.1-0.7-3.4c0-1.3,0.2-2.5,0.7-3.4
		c0.5-1,1.2-1.7,2.1-2.3s1.9-0.8,3-0.8C42.1,17.7,43.1,18,44,18.6z M38.4,20.8c-0.8,0.8-1.2,2-1.2,3.4c0,1.4,0.4,2.6,1.2,3.4
		c0.8,0.8,1.8,1.2,3.1,1.2c0.8,0,1.6-0.2,2.2-0.6c0.7-0.4,1.2-0.9,1.5-1.6c0.4-0.7,0.6-1.5,0.6-2.4c0-0.9-0.2-1.7-0.6-2.4
		c-0.4-0.7-0.9-1.2-1.5-1.6c-0.7-0.4-1.4-0.6-2.2-0.6C40.2,19.5,39.1,19.9,38.4,20.8z"/>
	<path id="XMLID_72_" class="st1" d="M61.4,19c0.9,0.9,1.4,2.3,1.4,4.1v7.3h-2.1v-7.2c0-1.3-0.3-2.2-1-2.9c-0.6-0.7-1.5-1-2.6-1
		c-1.1,0-2.1,0.4-2.8,1.1c-0.7,0.7-1,1.8-1,3.3v6.7h-2.1V17.8h2.1v3c0.3-1,0.9-1.8,1.7-2.4c0.8-0.6,1.8-0.8,2.8-0.8
		C59.3,17.6,60.5,18.1,61.4,19z"/>
	<path id="XMLID_74_" class="st1" d="M74.3,18.6c0.9,0.6,1.4,1.4,1.8,2.5v-7.6h2.1v17H76v-3.2c-0.3,1-0.9,1.8-1.8,2.5
		c-0.9,0.6-1.9,0.9-3.1,0.9c-1.1,0-2.1-0.3-3-0.8s-1.6-1.3-2.1-2.2c-0.5-1-0.7-2.1-0.7-3.4c0-1.3,0.2-2.5,0.7-3.4
		c0.5-1,1.2-1.7,2.1-2.3s1.9-0.8,3-0.8C72.4,17.7,73.4,18,74.3,18.6z M68.6,20.8c-0.8,0.8-1.2,2-1.2,3.4c0,1.4,0.4,2.6,1.2,3.4
		c0.8,0.8,1.8,1.2,3.1,1.2c0.8,0,1.6-0.2,2.2-0.6c0.7-0.4,1.2-0.9,1.5-1.6c0.4-0.7,0.6-1.5,0.6-2.4c0-0.9-0.2-1.7-0.6-2.4
		c-0.4-0.7-0.9-1.2-1.5-1.6c-0.7-0.4-1.4-0.6-2.2-0.6C70.4,19.5,69.4,19.9,68.6,20.8z"/>
	<path id="XMLID_77_" class="st1" d="M89.8,18.6c0.9,0.6,1.4,1.4,1.8,2.5v-3.2h2.1v12.6h-2.1v-3.2c-0.3,1-0.9,1.8-1.8,2.5
		c-0.9,0.6-1.9,0.9-3.1,0.9c-1.1,0-2.1-0.3-3-0.8s-1.6-1.3-2.1-2.2c-0.5-1-0.7-2.1-0.7-3.4c0-1.3,0.2-2.5,0.7-3.4
		c0.5-1,1.2-1.7,2.1-2.3s1.9-0.8,3-0.8C87.9,17.7,88.9,18,89.8,18.6z M84.1,20.8c-0.8,0.8-1.2,2-1.2,3.4c0,1.4,0.4,2.6,1.2,3.4
		c0.8,0.8,1.8,1.2,3.1,1.2c0.8,0,1.6-0.2,2.2-0.6c0.7-0.4,1.2-0.9,1.5-1.6c0.4-0.7,0.6-1.5,0.6-2.4c0-0.9-0.2-1.7-0.6-2.4
		c-0.4-0.7-0.9-1.2-1.5-1.6c-0.7-0.4-1.4-0.6-2.2-0.6C85.9,19.5,84.9,19.9,84.1,20.8z"/>
	<path id="XMLID_80_" class="st1" d="M108.2,17.8v12.6h-2.1v-3c-0.3,1-0.9,1.8-1.7,2.4c-0.8,0.5-1.8,0.8-2.9,0.8
		c-1.5,0-2.6-0.5-3.5-1.4c-0.9-0.9-1.4-2.3-1.4-4.1v-7.4h2.1V25c0,1.3,0.3,2.2,1,2.9c0.6,0.7,1.5,1,2.6,1c1.1,0,2.1-0.4,2.8-1.1
		s1-1.8,1-3.3v-6.7H108.2z"/>
	<path id="XMLID_82_" class="st1" d="M117.6,28.6v1.8H116c-1.3,0-2.2-0.3-2.9-0.9c-0.6-0.6-1-1.6-1-3.1v-6.8h-1.9v-1.8h1.9v-3.2h2.1
		v3.2h3.3v1.8h-3.3v6.9c0,0.8,0.1,1.4,0.4,1.7c0.3,0.3,0.8,0.4,1.6,0.4H117.6z"/>
	<path id="XMLID_84_" class="st1" d="M131.3,17.8v12.6h-2.1v-3c-0.3,1-0.9,1.8-1.7,2.4c-0.8,0.5-1.8,0.8-2.9,0.8
		c-1.5,0-2.6-0.5-3.5-1.4c-0.9-0.9-1.4-2.3-1.4-4.1v-7.4h2.1V25c0,1.3,0.3,2.2,1,2.9c0.6,0.7,1.5,1,2.6,1c1.1,0,2.1-0.4,2.8-1.1
		c0.7-0.7,1-1.8,1-3.3v-6.7H131.3z"/>
	<path id="XMLID_86_" class="st1" d="M136.2,28v2.5h-2.5V28H136.2z"/>
</g>
<g id="XMLID_40_">
	<path id="XMLID_41_" class="st0" d="M11.1,23.8c0-2.2,0.5-4.1,1.4-5.7c0.9-1.6,2.2-2.9,3.9-3.8c1.7-0.9,3.8-1.3,6.1-1.3h7.8v21.8
		h-7.8c-2.4,0-4.4-0.5-6.1-1.4c-1.7-0.9-3-2.2-3.9-3.8C11.6,27.9,11.1,26,11.1,23.8z M22.9,30.8h3V16.7h-3c-2.4,0-4.2,0.6-5.5,1.9
		c-1.3,1.2-1.9,3-1.9,5.2c0,2.2,0.6,4,1.9,5.2C18.8,30.2,20.6,30.8,22.9,30.8z"/>
</g>
</svg>
